<?xml version="1.0" encoding="utf-8"?>
<!-- Generator: Adobe Illustrator 23.1.0, SVG Export Plug-In . SVG Version: 6.00 Build 0)  -->
<svg version="1.1" id="Layer_1" xmlns="http://www.w3.org/2000/svg" xmlns:xlink="http://www.w3.org/1999/xlink" x="0px" y="0px"
	 viewBox="0 0 1366 768" style="enable-background:new 0 0 1366 768;" xml:space="preserve">
<style type="text/css">
	.st0{fill:#FFFFFF;}
	.st1{font-family:'Georgia-Bold';}
	.st2{font-size:83.7753px;}
</style>
<g>
	<path class="st0" d="M320,465.4c0-0.1-0.1-0.2-0.1-0.4c0-0.1-0.1-0.2-0.1-0.4c-4.5-18.3-19.7-31.9-37.8-31.9h-27.4v28.7H282
		c3.1,0,6,1.2,8.3,3.2c0.1,0.1,0.3,0.2,0.4,0.4c0.1,0.1,0.2,0.2,0.4,0.4c0.1,0.1,0.2,0.2,0.2,0.3s0.2,0.2,0.2,0.3s0.2,0.2,0.2,0.3
		c2.2,2.6,3.5,6.1,3.5,10v1.5c0,3.8-1.3,7.3-3.5,10c-0.1,0.1-0.2,0.2-0.2,0.3c-0.1,0.1-0.2,0.2-0.2,0.3c-0.1,0.1-0.2,0.2-0.2,0.3
		c-0.1,0.1-0.2,0.2-0.4,0.4c-0.1,0.1-0.3,0.2-0.4,0.4c-2.3,2-5.1,3.2-8.3,3.2h-27.4v28.7H282c18,0,33.2-13.4,37.8-31.9
		c0-0.1,0.1-0.2,0.1-0.4c0-0.2,0.1-0.2,0.1-0.4c0.8-3.4,1.2-7,1.2-10.8v-1.5C321.2,472.5,320.8,468.9,320,465.4z"/>
</g>
<g>
	<path class="st0" d="M478.2,465.3c0-0.1-0.1-0.2-0.1-0.4c0-0.1-0.1-0.2-0.1-0.4c-4.5-18.3-19.7-31.9-37.8-31.9h-27.4v28.7h27.4
		c3.1,0,6,1.2,8.3,3.2c0.1,0.1,0.3,0.2,0.4,0.4c0.1,0.1,0.2,0.2,0.4,0.4c0.1,0.1,0.2,0.2,0.2,0.3s0.2,0.2,0.2,0.3s0.2,0.2,0.2,0.3
		c2.2,2.6,3.5,6.1,3.5,10v1.5c0,3.8-1.3,7.3-3.5,10c-0.1,0.1-0.2,0.2-0.2,0.3c-0.1,0.1-0.2,0.2-0.2,0.3c-0.1,0.1-0.2,0.2-0.2,0.3
		c-0.1,0.1-0.2,0.2-0.4,0.4c-0.1,0.1-0.3,0.2-0.4,0.4c-2.3,2-5.1,3.2-8.3,3.2h-27.4v28.7h27.4c18,0,33.2-13.4,37.8-31.9
		c0-0.1,0.1-0.2,0.1-0.4c0-0.2,0.1-0.2,0.1-0.4c0.8-3.4,1.2-7,1.2-10.8v-1.5C479.4,472.4,479,468.8,478.2,465.3z"/>
</g>
<g>
	<path class="st0" d="M347.9,488.5c0,0.1,0.1,0.2,0.1,0.4c0,0.1,0.1,0.2,0.1,0.4c4.5,18.4,19.7,32,37.8,32h27.4v-28.8h-27.4
		c-3.1,0-6-1.2-8.3-3.2c-0.1-0.1-0.3-0.2-0.4-0.4c-0.1-0.1-0.2-0.2-0.4-0.4c-0.1-0.1-0.2-0.2-0.2-0.3s-0.2-0.2-0.2-0.3
		s-0.2-0.2-0.2-0.3c-2.2-2.6-3.5-6.1-3.5-10v-1.5c0-3.8,1.3-7.3,3.5-10c0.1-0.1,0.2-0.2,0.2-0.3c0.1-0.1,0.2-0.2,0.2-0.3
		c0.1-0.1,0.2-0.2,0.2-0.3c0.1-0.1,0.2-0.2,0.4-0.4c0.1-0.1,0.3-0.2,0.4-0.4c2.3-2,5.1-3.2,8.3-3.2h27.4v-28.4h-27.4
		c-18,0-33.2,13.5-37.8,32c0,0.1-0.1,0.2-0.1,0.4s-0.1,0.2-0.1,0.4c-0.8,3.4-1.2,7-1.2,10.8v1.5
		C346.7,481.5,347.2,485.1,347.9,488.5z"/>
</g>
<g>
	<path class="st0" d="M189.8,488.5c0,0.1,0.1,0.2,0.1,0.4c0,0.1,0.1,0.2,0.1,0.4c4.5,18.4,19.7,32,37.8,32h27.4v-28.8h-27.4
		c-3.1,0-6-1.2-8.3-3.2c-0.1-0.1-0.3-0.2-0.4-0.4c-0.1-0.1-0.2-0.2-0.4-0.4c-0.1-0.1-0.2-0.2-0.2-0.3s-0.2-0.2-0.2-0.3
		s-0.2-0.2-0.2-0.3c-2.2-2.6-3.5-6.1-3.5-10v-1.5c0-3.8,1.3-7.3,3.5-10c0.1-0.1,0.2-0.2,0.2-0.3c0.1-0.1,0.2-0.2,0.2-0.3
		c0.1-0.1,0.2-0.2,0.2-0.3c0.1-0.1,0.2-0.2,0.4-0.4c0.1-0.1,0.3-0.2,0.4-0.4c2.3-2,5.1-3.2,8.3-3.2h27.4v-28.4h-27.4
		c-18,0-33.2,13.5-37.8,32c0,0.1-0.1,0.2-0.1,0.4s-0.1,0.2-0.1,0.4c-0.8,3.4-1.2,7-1.2,10.8v1.5C188.5,481.5,189,485.1,189.8,488.5z
		"/>
</g>
<g>
	<g>
		<path class="st0" d="M385.1,488.9H284.6c-5.9,0-10.7-5.3-10.7-11.9l0,0c0-6.5,4.8-11.9,10.7-11.9h100.5c5.9,0,10.7,5.3,10.7,11.9
			l0,0C395.8,483.6,391,488.9,385.1,488.9z"/>
		<path class="st0" d="M385.1,489.2H284.6c-6.1,0-11-5.5-11-12.2l0,0c0-6.8,4.9-12.2,11-12.2h100.5c6.1,0,11,5.5,11,12.2l0,0
			C396.1,483.8,391.2,489.2,385.1,489.2z M284.6,465.5c-5.7,0-10.4,5.1-10.4,11.5l0,0c0,6.4,4.6,11.5,10.4,11.5h100.5
			c5.7,0,10.4-5.1,10.4-11.5l0,0c0-6.4-4.6-11.5-10.4-11.5H284.6z"/>
	</g>
</g>
<g>
	<path class="st0" d="M224.1,321c-0.1,0-0.3,0-0.4,0.1c-0.1,0-0.3,0-0.4,0.1c-19.5,3.7-33.8,16-33.8,30.7v22.3h30.4v-22.3
		c0-2.5,1.3-4.9,3.4-6.7c0.1-0.1,0.2-0.2,0.4-0.3c0.1-0.1,0.2-0.2,0.4-0.3c0.1-0.1,0.2-0.1,0.3-0.2s0.2-0.1,0.3-0.2s0.2-0.1,0.3-0.2
		c2.8-1.8,6.5-2.9,10.5-2.9h1.5c4.1,0,7.8,1.1,10.5,2.9c0.1,0.1,0.2,0.1,0.3,0.2s0.2,0.1,0.3,0.2s0.2,0.1,0.3,0.2s0.3,0.2,0.4,0.3
		c0.1,0.1,0.3,0.2,0.4,0.3c2.1,1.9,3.4,4.2,3.4,6.7v22.3H283v-22.3c0-14.7-14.3-27-33.8-30.7c-0.1,0-0.2,0-0.4-0.1
		c-0.1,0-0.2,0-0.4-0.1c-3.6-0.6-7.5-1-11.4-1h-1.5C231.5,320,227.7,320.4,224.1,321z"/>
</g>
<g>
	<path class="st0" d="M248.4,427c0.1,0,0.3,0,0.4-0.1c0.1,0,0.3,0,0.4-0.1c19.5-3.7,33.8-16,33.8-30.7v-22.3h-30.4v22.3
		c0,2.5-1.3,4.9-3.4,6.7c-0.1,0.1-0.2,0.2-0.4,0.3c-0.1,0.1-0.2,0.2-0.4,0.3c-0.1,0.1-0.2,0.1-0.3,0.2s-0.2,0.1-0.3,0.2
		s-0.2,0.1-0.3,0.2c-2.8,1.8-6.5,2.9-10.5,2.9h-1.5c-4.1,0-7.8-1.1-10.5-2.9c-0.1-0.1-0.2-0.1-0.3-0.2s-0.2-0.1-0.3-0.2
		s-0.2-0.1-0.3-0.2s-0.3-0.2-0.4-0.3c-0.1-0.1-0.3-0.2-0.4-0.3c-2.1-1.9-3.4-4.2-3.4-6.7v-22.3h-30.4v22.3c0,14.7,14.3,27,33.8,30.7
		c0.1,0,0.2,0,0.4,0.1c0.1,0,0.2,0,0.4,0.1c3.6,0.6,7.5,1,11.4,1h1.5C241,428,244.8,427.7,248.4,427z"/>
</g>
<g>
	<path class="st0" d="M417.4,321c-0.1,0-0.3,0-0.4,0.1c-0.1,0-0.3,0-0.4,0.1c-19.5,3.7-33.8,16-33.8,30.7v22.3h30.4v-22.3
		c0-2.5,1.3-4.9,3.4-6.7c0.1-0.1,0.2-0.2,0.4-0.3c0.1-0.1,0.2-0.2,0.4-0.3c0.1-0.1,0.2-0.1,0.3-0.2c0.1-0.1,0.2-0.1,0.3-0.2
		c0.1-0.1,0.2-0.1,0.3-0.2c2.8-1.8,6.5-2.9,10.5-2.9h1.5c4,0,7.8,1.1,10.5,2.9c0.1,0.1,0.2,0.1,0.3,0.2c0.1,0.1,0.2,0.1,0.3,0.2
		c0.1,0.1,0.2,0.1,0.3,0.2c0.1,0.1,0.3,0.2,0.4,0.3c0.1,0.1,0.3,0.2,0.4,0.3c2.1,1.9,3.4,4.2,3.4,6.7v22.3h30.4v-22.3
		c0-14.7-14.3-27-33.8-30.7c-0.1,0-0.2,0-0.4-0.1c-0.1,0-0.2,0-0.4-0.1c-3.6-0.6-7.5-1-11.4-1h-1.5C424.9,320,421,320.4,417.4,321z"
		/>
</g>
<g>
	<path class="st0" d="M441.7,427c0.1,0,0.3,0,0.4-0.1c0.1,0,0.3,0,0.4-0.1c19.5-3.7,33.8-16,33.8-30.7v-22.3h-30.4v22.3
		c0,2.5-1.3,4.9-3.4,6.7c-0.1,0.1-0.2,0.2-0.4,0.3c-0.1,0.1-0.2,0.2-0.4,0.3c-0.1,0.1-0.2,0.1-0.3,0.2c-0.1,0.1-0.2,0.1-0.3,0.2
		c-0.1,0.1-0.2,0.1-0.3,0.2c-2.8,1.8-6.5,2.9-10.5,2.9h-1.5c-4,0-7.8-1.1-10.5-2.9c-0.1-0.1-0.2-0.1-0.3-0.2
		c-0.1-0.1-0.2-0.1-0.3-0.2c-0.1-0.1-0.2-0.1-0.3-0.2c-0.1-0.1-0.3-0.2-0.4-0.3c-0.1-0.1-0.3-0.2-0.4-0.3c-2.1-1.9-3.4-4.2-3.4-6.7
		v-22.3h-30.4v22.3c0,14.7,14.3,27,33.8,30.7c0.1,0,0.2,0,0.4,0.1c0.1,0,0.2,0,0.4,0.1c3.6,0.6,7.5,1,11.4,1h1.5
		C434.3,428,438.1,427.7,441.7,427z"/>
</g>
<g>
	<g>
		<path class="st0" d="M436.9,393.8v78.6c0,4.6-2.8,8.4-6.2,8.4l0,0c-3.5,0-6.2-3.7-6.2-8.4v-78.6c0-4.6,2.8-8.4,6.2-8.4l0,0
			C434.2,385.5,436.9,389.2,436.9,393.8z"/>
		<path class="st0" d="M437.1,393.8v78.6c0,4.8-2.9,8.6-6.4,8.6l0,0c-3.5,0-6.4-3.9-6.4-8.6v-78.6c0-4.8,2.9-8.6,6.4-8.6l0,0
			C434.3,385.2,437.1,389.1,437.1,393.8z M424.7,472.4c0,4.5,2.7,8.1,6,8.1l0,0c3.3,0,6-3.6,6-8.1v-78.6c0-4.5-2.7-8.1-6-8.1l0,0
			c-3.3,0-6,3.6-6,8.1V472.4z"/>
	</g>
</g>
<g>
	<g>
		<path class="st0" d="M242.6,273.8v78.6c0,4.6-2.8,8.4-6.2,8.4l0,0c-3.4,0-6.2-3.7-6.2-8.4v-78.6c0-4.6,2.8-8.4,6.2-8.4l0,0
			C239.8,265.5,242.6,269.2,242.6,273.8z"/>
		<path class="st0" d="M242.8,273.8v78.6c0,4.8-2.9,8.6-6.4,8.6l0,0c-3.6,0-6.4-3.9-6.4-8.6v-78.6c0-4.8,2.9-8.6,6.4-8.6l0,0
			C240,265.2,242.8,269.1,242.8,273.8z M230.3,352.4c0,4.5,2.7,8.1,6.1,8.1l0,0c3.3,0,6.1-3.6,6.1-8.1v-78.6c0-4.5-2.7-8.1-6.1-8.1
			l0,0c-3.3,0-6.1,3.6-6.1,8.1V352.4z"/>
	</g>
</g>
<g>
	<g>
		<path class="st0" d="M437,273.8v78.6c0,4.6-2.8,8.4-6.2,8.4l0,0c-3.5,0-6.2-3.7-6.2-8.4v-78.6c0-4.6,2.8-8.4,6.2-8.4l0,0
			C434.2,265.5,437,269.2,437,273.8z"/>
		<path class="st0" d="M437.2,273.8v78.6c0,4.8-2.9,8.6-6.4,8.6l0,0c-3.5,0-6.4-3.9-6.4-8.6v-78.6c0-4.8,2.9-8.6,6.4-8.6l0,0
			C434.3,265.2,437.2,269.1,437.2,273.8z M424.7,352.4c0,4.5,2.7,8.1,6,8.1l0,0c3.3,0,6-3.6,6-8.1v-78.6c0-4.5-2.7-8.1-6-8.1l0,0
			c-3.3,0-6,3.6-6,8.1V352.4z"/>
	</g>
</g>
<g>
	<g>
		<path class="st0" d="M242.6,393.8v78.6c0,4.6-2.8,8.4-6.2,8.4l0,0c-3.4,0-6.2-3.7-6.2-8.4v-78.6c0-4.6,2.8-8.4,6.2-8.4l0,0
			C239.8,385.5,242.6,389.2,242.6,393.8z"/>
		<path class="st0" d="M242.8,393.8v78.6c0,4.8-2.9,8.6-6.4,8.6l0,0c-3.6,0-6.4-3.9-6.4-8.6v-78.6c0-4.8,2.9-8.6,6.4-8.6l0,0
			C240,385.2,242.8,389.1,242.8,393.8z M230.3,472.4c0,4.5,2.7,8.1,6.1,8.1l0,0c3.3,0,6.1-3.6,6.1-8.1v-78.6c0-4.5-2.7-8.1-6.1-8.1
			l0,0c-3.3,0-6.1,3.6-6.1,8.1V472.4z"/>
	</g>
</g>
<g>
	<path class="st0" d="M319,257.4c0-0.1-0.1-0.2-0.1-0.4c0-0.1-0.1-0.2-0.1-0.4c-4.5-18.4-19.7-32-37.8-32h-27.4v28.9H281
		c3.1,0,6,1.2,8.3,3.2c0.1,0.1,0.3,0.2,0.4,0.4c0.1,0.1,0.2,0.2,0.4,0.4c0.1,0.1,0.2,0.2,0.2,0.3s0.2,0.2,0.2,0.3s0.2,0.2,0.2,0.3
		c2.2,2.6,3.5,6.1,3.5,10v1.5c0,3.8-1.3,7.3-3.5,10c-0.1,0.1-0.2,0.2-0.2,0.3c-0.1,0.1-0.2,0.2-0.2,0.3c-0.1,0.1-0.2,0.2-0.2,0.3
		c-0.1,0.1-0.2,0.2-0.4,0.4c-0.1,0.1-0.3,0.2-0.4,0.4c-2.3,2-5.1,3.2-8.3,3.2h-27.4v28.8H281c18,0,33.2-13.5,37.8-32
		c0-0.1,0.1-0.2,0.1-0.4c0-0.2,0.1-0.2,0.1-0.4c0.8-3.4,1.2-7,1.2-10.8v-1.5C320.2,264.5,319.8,260.9,319,257.4z"/>
</g>
<g>
	<path class="st0" d="M477.2,257.4c0-0.1-0.1-0.2-0.1-0.4c0-0.1-0.1-0.2-0.1-0.4c-4.5-18.4-19.7-32-37.8-32h-27.4v28.9h27.4
		c3.1,0,6,1.2,8.3,3.2c0.1,0.1,0.3,0.2,0.4,0.4c0.1,0.1,0.2,0.2,0.4,0.4c0.1,0.1,0.2,0.2,0.2,0.3s0.2,0.2,0.2,0.3s0.2,0.2,0.2,0.3
		c2.2,2.6,3.5,6.1,3.5,10v1.5c0,3.8-1.3,7.3-3.5,10c-0.1,0.1-0.2,0.2-0.2,0.3c-0.1,0.1-0.2,0.2-0.2,0.3c-0.1,0.1-0.2,0.2-0.2,0.3
		c-0.1,0.1-0.2,0.2-0.4,0.4c-0.1,0.1-0.3,0.2-0.4,0.4c-2.3,2-5.1,3.2-8.3,3.2h-27.4v28.8h27.4c18,0,33.2-13.5,37.8-32
		c0-0.1,0.1-0.2,0.1-0.4c0-0.2,0.1-0.2,0.1-0.4c0.8-3.4,1.2-7,1.2-10.8v-1.5C478.4,264.5,478,260.9,477.2,257.4z"/>
</g>
<g>
	<path class="st0" d="M346.9,280.7c0,0.1,0.1,0.2,0.1,0.4c0,0.1,0.1,0.2,0.1,0.4c4.5,18.4,19.7,32,37.8,32h27.4v-28.8h-27.4
		c-3.1,0-6-1.2-8.3-3.2c-0.1-0.1-0.3-0.2-0.4-0.4c-0.1-0.1-0.2-0.2-0.4-0.4c-0.1-0.1-0.2-0.2-0.2-0.3s-0.2-0.2-0.2-0.3
		s-0.2-0.2-0.2-0.3c-2.2-2.6-3.5-6.1-3.5-10v-1.5c0-3.8,1.3-7.3,3.5-10c0.1-0.1,0.2-0.2,0.2-0.3c0.1-0.1,0.2-0.2,0.2-0.3
		c0.1-0.1,0.2-0.2,0.2-0.3c0.1-0.1,0.2-0.2,0.4-0.4c0.1-0.1,0.3-0.2,0.4-0.4c2.3-2,5.1-3.2,8.3-3.2h27.4v-28.8h-27.4
		c-18,0-33.2,13.6-37.8,32c0,0.1-0.1,0.2-0.1,0.4s-0.1,0.2-0.1,0.4c-0.8,3.4-1.2,7-1.2,10.8v1.5
		C345.7,273.7,346.1,277.3,346.9,280.7z"/>
</g>
<g>
	<path class="st0" d="M188.7,280.7c0,0.1,0.1,0.2,0.1,0.4c0,0.1,0.1,0.2,0.1,0.4c4.5,18.4,19.7,32,37.8,32h27.4v-28.8h-27.4
		c-3.1,0-6-1.2-8.3-3.2c-0.1-0.1-0.3-0.2-0.4-0.4c-0.1-0.1-0.2-0.2-0.4-0.4c-0.1-0.1-0.2-0.2-0.2-0.3s-0.2-0.2-0.2-0.3
		s-0.2-0.2-0.2-0.3c-2.2-2.6-3.5-6.1-3.5-10v-1.5c0-3.8,1.3-7.3,3.5-10c0.1-0.1,0.2-0.2,0.2-0.3c0.1-0.1,0.2-0.2,0.2-0.3
		c0.1-0.1,0.2-0.2,0.2-0.3c0.1-0.1,0.2-0.2,0.4-0.4c0.1-0.1,0.3-0.2,0.4-0.4c2.3-2,5.1-3.2,8.3-3.2h27.4v-28.8h-27.4
		c-18,0-33.2,13.6-37.8,32c0,0.1-0.1,0.2-0.1,0.4s-0.1,0.2-0.1,0.4c-0.8,3.4-1.2,7-1.2,10.8v1.5C187.5,273.7,188,277.3,188.7,280.7z
		"/>
</g>
<g>
	<g>
		<path class="st0" d="M384,281.1H283.6c-5.9,0-10.7-5.3-10.7-11.9l0,0c0-6.5,4.8-11.9,10.7-11.9h100.5c5.9,0,10.7,5.3,10.7,11.9
			l0,0C394.8,275.8,390,281.1,384,281.1z"/>
		<path class="st0" d="M384,281.4H283.6c-6.1,0-11-5.5-11-12.2l0,0c0-6.8,4.9-12.2,11-12.2h100.5c6.1,0,11,5.5,11,12.2l0,0
			C395.1,276,390.1,281.4,384,281.4z M283.6,257.7c-5.7,0-10.4,5.1-10.4,11.5l0,0c0,6.4,4.6,11.5,10.4,11.5h100.5
			c5.7,0,10.4-5.1,10.4-11.5l0,0c0-6.4-4.6-11.5-10.4-11.5H283.6z"/>
	</g>
</g>
<text transform="matrix(1.1887 0 0 1 523.9504 400.6457)" class="st0 st1 st2">A  P  P  E  N  D</text>
</svg>
