<?xml version="1.0" encoding="utf-8"?>
<!-- Generator: Adobe Illustrator 23.1.0, SVG Export Plug-In . SVG Version: 6.00 Build 0)  -->
<svg version="1.1" id="Layer_1" xmlns="http://www.w3.org/2000/svg" xmlns:xlink="http://www.w3.org/1999/xlink" x="0px" y="0px"
	 viewBox="0 0 1366 768" style="enable-background:new 0 0 1366 768;" xml:space="preserve">
<style type="text/css">
	.st0{font-family:'Georgia-Bold';}
	.st1{font-size:83.7753px;}
</style>
<g>
	<path d="M255.8,465.3c0-0.1-0.1-0.2-0.1-0.4c0-0.1-0.1-0.2-0.1-0.4c-4.5-18.3-19.7-31.9-37.8-31.9h-27.4v28.7h27.4
		c3.1,0,6,1.2,8.3,3.2c0.1,0.1,0.3,0.2,0.4,0.4c0.1,0.1,0.2,0.2,0.4,0.4c0.1,0.1,0.2,0.2,0.2,0.3s0.2,0.2,0.2,0.3s0.2,0.2,0.2,0.3
		c2.2,2.6,3.5,6.1,3.5,10v1.5c0,3.8-1.3,7.3-3.5,10c-0.1,0.1-0.2,0.2-0.2,0.3c-0.1,0.1-0.2,0.2-0.2,0.3c-0.1,0.1-0.2,0.2-0.2,0.3
		c-0.1,0.1-0.2,0.2-0.4,0.4c-0.1,0.1-0.3,0.2-0.4,0.4c-2.3,2-5.1,3.2-8.3,3.2h-27.4v28.7h27.4c18,0,33.2-13.4,37.8-31.9
		c0-0.1,0.1-0.2,0.1-0.4s0.1-0.2,0.1-0.4c0.8-3.4,1.2-7,1.2-10.8v-1.5C257,472.5,256.6,468.8,255.8,465.3z"/>
</g>
<g>
	<path d="M414,465.3c0-0.1-0.1-0.2-0.1-0.4c0-0.1-0.1-0.2-0.1-0.4c-4.5-18.3-19.7-31.9-37.8-31.9h-27.4v28.7H376
		c3.1,0,6,1.2,8.3,3.2c0.1,0.1,0.3,0.2,0.4,0.4c0.1,0.1,0.2,0.2,0.4,0.4c0.1,0.1,0.2,0.2,0.2,0.3s0.2,0.2,0.2,0.3s0.2,0.2,0.2,0.3
		c2.2,2.6,3.5,6.1,3.5,10v1.5c0,3.8-1.3,7.3-3.5,10c-0.1,0.1-0.2,0.2-0.2,0.3c-0.1,0.1-0.2,0.2-0.2,0.3c-0.1,0.1-0.2,0.2-0.2,0.3
		c-0.1,0.1-0.2,0.2-0.4,0.4c-0.1,0.1-0.3,0.2-0.4,0.4c-2.3,2-5.1,3.2-8.3,3.2h-27.4v28.7H376c18,0,33.2-13.4,37.8-31.9
		c0-0.1,0.1-0.2,0.1-0.4s0.1-0.2,0.1-0.4c0.8-3.4,1.2-7,1.2-10.8v-1.5C415.2,472.5,414.8,468.8,414,465.3z"/>
</g>
<g>
	<path d="M283.7,488.5c0,0.1,0.1,0.2,0.1,0.4c0,0.1,0.1,0.2,0.1,0.4c4.5,18.4,19.7,32,37.8,32h27.4v-28.8h-27.4
		c-3.1,0-6-1.2-8.3-3.2c-0.1-0.1-0.3-0.2-0.4-0.4c-0.1-0.1-0.2-0.2-0.4-0.4c-0.1-0.1-0.2-0.2-0.2-0.3s-0.2-0.2-0.2-0.3
		s-0.2-0.2-0.2-0.3c-2.2-2.6-3.5-6.1-3.5-10v-1.5c0-3.8,1.3-7.3,3.5-10c0.1-0.1,0.2-0.2,0.2-0.3c0.1-0.1,0.2-0.2,0.2-0.3
		c0.1-0.1,0.2-0.2,0.2-0.3c0.1-0.1,0.2-0.2,0.4-0.4c0.1-0.1,0.3-0.2,0.4-0.4c2.3-2,5.1-3.2,8.3-3.2h27.4v-28.4h-27.4
		c-18,0-33.2,13.5-37.8,32c0,0.1-0.1,0.2-0.1,0.4c0,0.2-0.1,0.2-0.1,0.4c-0.8,3.4-1.2,7-1.2,10.8v1.5
		C282.5,481.5,283,485.1,283.7,488.5z"/>
</g>
<g>
	<path d="M125.6,488.5c0,0.1,0.1,0.2,0.1,0.4c0,0.1,0.1,0.2,0.1,0.4c4.5,18.4,19.7,32,37.8,32H191v-28.8h-27.4c-3.1,0-6-1.2-8.3-3.2
		c-0.1-0.1-0.3-0.2-0.4-0.4c-0.1-0.1-0.2-0.2-0.4-0.4c-0.1-0.1-0.2-0.2-0.2-0.3s-0.2-0.2-0.2-0.3s-0.2-0.2-0.2-0.3
		c-2.2-2.6-3.5-6.1-3.5-10v-1.5c0-3.8,1.3-7.3,3.5-10c0.1-0.1,0.2-0.2,0.2-0.3c0.1-0.1,0.2-0.2,0.2-0.3c0.1-0.1,0.2-0.2,0.2-0.3
		c0.1-0.1,0.2-0.2,0.4-0.4c0.1-0.1,0.3-0.2,0.4-0.4c2.3-2,5.1-3.2,8.3-3.2H191v-28.4h-27.4c-18,0-33.2,13.5-37.8,32
		c0,0.1-0.1,0.2-0.1,0.4c0,0.2-0.1,0.2-0.1,0.4c-0.8,3.4-1.2,7-1.2,10.8v1.5C124.3,481.5,124.8,485.1,125.6,488.5z"/>
</g>
<g>
	<g>
		<path d="M320.9,489H220.4c-5.9,0-10.7-5.3-10.7-11.9l0,0c0-6.5,4.8-11.9,10.7-11.9h100.5c5.9,0,10.7,5.3,10.7,11.9l0,0
			C331.6,483.6,326.8,489,320.9,489z"/>
		<path d="M320.9,489.2H220.4c-6.1,0-11-5.5-11-12.2l0,0c0-6.8,4.9-12.2,11-12.2h100.5c6.1,0,11,5.5,11,12.2l0,0
			C331.9,483.8,327,489.2,320.9,489.2z M220.4,465.5c-5.7,0-10.4,5.1-10.4,11.5l0,0c0,6.4,4.6,11.5,10.4,11.5h100.5
			c5.7,0,10.4-5.1,10.4-11.5l0,0c0-6.4-4.6-11.5-10.4-11.5H220.4z"/>
	</g>
</g>
<g>
	<path d="M159.9,321c-0.1,0-0.3,0-0.4,0.1c-0.1,0-0.3,0-0.4,0.1c-19.5,3.7-33.8,16-33.8,30.7v22.3h30.4V352c0-2.5,1.3-4.9,3.4-6.7
		c0.1-0.1,0.2-0.2,0.4-0.3c0.1-0.1,0.2-0.2,0.4-0.3c0.1-0.1,0.2-0.1,0.3-0.2c0.1-0.1,0.2-0.1,0.3-0.2c0.1-0.1,0.2-0.1,0.3-0.2
		c2.8-1.8,6.5-2.9,10.5-2.9h1.5c4.1,0,7.8,1.1,10.5,2.9c0.1,0.1,0.2,0.1,0.3,0.2c0.1,0.1,0.2,0.1,0.3,0.2c0.1,0.1,0.2,0.1,0.3,0.2
		c0.1,0.1,0.3,0.2,0.4,0.3c0.1,0.1,0.3,0.2,0.4,0.3c2.1,1.9,3.4,4.2,3.4,6.7v22.3h30.4V352c0-14.7-14.3-27-33.8-30.7
		c-0.1,0-0.2,0-0.4-0.1c-0.1,0-0.2,0-0.4-0.1c-3.6-0.6-7.5-1-11.4-1h-1.5C167.3,320,163.5,320.5,159.9,321z"/>
</g>
<g>
	<path d="M184.2,427c0.1,0,0.3,0,0.4-0.1c0.1,0,0.3,0,0.4-0.1c19.5-3.7,33.8-16,33.8-30.7v-22.3h-30.4v22.3c0,2.5-1.3,4.9-3.4,6.7
		c-0.1,0.1-0.2,0.2-0.4,0.3c-0.1,0.1-0.2,0.2-0.4,0.3c-0.1,0.1-0.2,0.1-0.3,0.2c-0.1,0.1-0.2,0.1-0.3,0.2c-0.1,0.1-0.2,0.1-0.3,0.2
		c-2.8,1.8-6.5,2.9-10.5,2.9h-1.5c-4.1,0-7.8-1.1-10.5-2.9c-0.1-0.1-0.2-0.1-0.3-0.2c-0.1-0.1-0.2-0.1-0.3-0.2
		c-0.1-0.1-0.2-0.1-0.3-0.2c-0.1-0.1-0.3-0.2-0.4-0.3c-0.1-0.1-0.3-0.2-0.4-0.3c-2.1-1.9-3.4-4.2-3.4-6.7v-22.3h-30.4v22.3
		c0,14.7,14.3,27,33.8,30.7c0.1,0,0.2,0,0.4,0.1c0.1,0,0.2,0,0.4,0.1c3.6,0.6,7.5,1,11.4,1h1.5C176.8,428,180.6,427.8,184.2,427z"/>
</g>
<g>
	<path d="M353.2,321c-0.1,0-0.3,0-0.4,0.1c-0.1,0-0.3,0-0.4,0.1c-19.5,3.7-33.8,16-33.8,30.7v22.3H349V352c0-2.5,1.3-4.9,3.4-6.7
		c0.1-0.1,0.2-0.2,0.4-0.3c0.1-0.1,0.2-0.2,0.4-0.3c0.1-0.1,0.2-0.1,0.3-0.2c0.1-0.1,0.2-0.1,0.3-0.2c0.1-0.1,0.2-0.1,0.3-0.2
		c2.8-1.8,6.5-2.9,10.5-2.9h1.5c4,0,7.8,1.1,10.5,2.9c0.1,0.1,0.2,0.1,0.3,0.2c0.1,0.1,0.2,0.1,0.3,0.2c0.1,0.1,0.2,0.1,0.3,0.2
		c0.1,0.1,0.3,0.2,0.4,0.3c0.1,0.1,0.3,0.2,0.4,0.3c2.1,1.9,3.4,4.2,3.4,6.7v22.3h30.4V352c0-14.7-14.3-27-33.8-30.7
		c-0.1,0-0.2,0-0.4-0.1c-0.1,0-0.2,0-0.4-0.1c-3.6-0.6-7.5-1-11.4-1h-1.5C360.7,320,356.8,320.5,353.2,321z"/>
</g>
<g>
	<path d="M377.5,427c0.1,0,0.3,0,0.4-0.1c0.1,0,0.3,0,0.4-0.1c19.5-3.7,33.8-16,33.8-30.7v-22.3h-30.4v22.3c0,2.5-1.3,4.9-3.4,6.7
		c-0.1,0.1-0.2,0.2-0.4,0.3c-0.1,0.1-0.2,0.2-0.4,0.3c-0.1,0.1-0.2,0.1-0.3,0.2c-0.1,0.1-0.2,0.1-0.3,0.2c-0.1,0.1-0.2,0.1-0.3,0.2
		c-2.8,1.8-6.5,2.9-10.5,2.9h-1.5c-4,0-7.8-1.1-10.5-2.9c-0.1-0.1-0.2-0.1-0.3-0.2c-0.1-0.1-0.2-0.1-0.3-0.2
		c-0.1-0.1-0.2-0.1-0.3-0.2c-0.1-0.1-0.3-0.2-0.4-0.3s-0.3-0.2-0.4-0.3c-2.1-1.9-3.4-4.2-3.4-6.7v-22.3h-30.4v22.3
		c0,14.7,14.3,27,33.8,30.7c0.1,0,0.2,0,0.4,0.1c0.1,0,0.2,0,0.4,0.1c3.6,0.6,7.5,1,11.4,1h1.5C370.1,428,373.9,427.8,377.5,427z"/>
</g>
<g>
	<g>
		<path d="M372.7,393.8v78.6c0,4.6-2.8,8.4-6.2,8.4l0,0c-3.5,0-6.2-3.7-6.2-8.4v-78.6c0-4.6,2.8-8.4,6.2-8.4l0,0
			C370,385.5,372.7,389.2,372.7,393.8z"/>
		<path d="M372.9,393.8v78.6c0,4.8-2.9,8.6-6.4,8.6l0,0c-3.5,0-6.4-3.9-6.4-8.6v-78.6c0-4.8,2.9-8.6,6.4-8.6l0,0
			C370.1,385.2,372.9,389.1,372.9,393.8z M360.5,472.5c0,4.5,2.7,8.1,6,8.1l0,0c3.3,0,6-3.6,6-8.1v-78.6c0-4.5-2.7-8.1-6-8.1l0,0
			c-3.3,0-6,3.6-6,8.1V472.5z"/>
	</g>
</g>
<g>
	<g>
		<path d="M178.4,273.8v78.6c0,4.6-2.8,8.4-6.2,8.4l0,0c-3.4,0-6.2-3.7-6.2-8.4v-78.6c0-4.6,2.8-8.4,6.2-8.4l0,0
			C175.6,265.5,178.4,269.2,178.4,273.8z"/>
		<path d="M178.6,273.8v78.6c0,4.8-2.9,8.6-6.4,8.6l0,0c-3.6,0-6.4-3.9-6.4-8.6v-78.6c0-4.8,2.9-8.6,6.4-8.6l0,0
			C175.8,265.2,178.6,269.1,178.6,273.8z M166.1,352.5c0,4.5,2.7,8.1,6.1,8.1l0,0c3.3,0,6.1-3.6,6.1-8.1v-78.6
			c0-4.5-2.7-8.1-6.1-8.1l0,0c-3.3,0-6.1,3.6-6.1,8.1V352.5z"/>
	</g>
</g>
<g>
	<g>
		<path d="M372.8,273.8v78.6c0,4.6-2.8,8.4-6.2,8.4l0,0c-3.5,0-6.2-3.7-6.2-8.4v-78.6c0-4.6,2.8-8.4,6.2-8.4l0,0
			C370,265.5,372.8,269.2,372.8,273.8z"/>
		<path d="M373,273.8v78.6c0,4.8-2.9,8.6-6.4,8.6l0,0c-3.5,0-6.4-3.9-6.4-8.6v-78.6c0-4.8,2.9-8.6,6.4-8.6l0,0
			C370.1,265.2,373,269.1,373,273.8z M360.5,352.5c0,4.5,2.7,8.1,6,8.1l0,0c3.3,0,6-3.6,6-8.1v-78.6c0-4.5-2.7-8.1-6-8.1l0,0
			c-3.3,0-6,3.6-6,8.1V352.5z"/>
	</g>
</g>
<g>
	<g>
		<path d="M178.4,393.8v78.6c0,4.6-2.8,8.4-6.2,8.4l0,0c-3.4,0-6.2-3.7-6.2-8.4v-78.6c0-4.6,2.8-8.4,6.2-8.4l0,0
			C175.6,385.5,178.4,389.2,178.4,393.8z"/>
		<path d="M178.6,393.8v78.6c0,4.8-2.9,8.6-6.4,8.6l0,0c-3.6,0-6.4-3.9-6.4-8.6v-78.6c0-4.8,2.9-8.6,6.4-8.6l0,0
			C175.8,385.2,178.6,389.1,178.6,393.8z M166.1,472.5c0,4.5,2.7,8.1,6.1,8.1l0,0c3.3,0,6.1-3.6,6.1-8.1v-78.6
			c0-4.5-2.7-8.1-6.1-8.1l0,0c-3.3,0-6.1,3.6-6.1,8.1V472.5z"/>
	</g>
</g>
<g>
	<path d="M254.8,257.5c0-0.1-0.1-0.2-0.1-0.4c0-0.1-0.1-0.2-0.1-0.4c-4.5-18.4-19.7-32-37.8-32h-27.4v28.9h27.4c3.1,0,6,1.2,8.3,3.2
		c0.1,0.1,0.3,0.2,0.4,0.4c0.1,0.1,0.2,0.2,0.4,0.4c0.1,0.1,0.2,0.2,0.2,0.3s0.2,0.2,0.2,0.3s0.2,0.2,0.2,0.3
		c2.2,2.6,3.5,6.1,3.5,10v1.5c0,3.8-1.3,7.3-3.5,10c-0.1,0.1-0.2,0.2-0.2,0.3c-0.1,0.1-0.2,0.2-0.2,0.3c-0.1,0.1-0.2,0.2-0.2,0.3
		c-0.1,0.1-0.2,0.2-0.4,0.4c-0.1,0.1-0.3,0.2-0.4,0.4c-2.3,2-5.1,3.2-8.3,3.2h-27.4v28.8h27.4c18,0,33.2-13.5,37.8-32
		c0-0.1,0.1-0.2,0.1-0.4c0-0.2,0.1-0.2,0.1-0.4c0.8-3.4,1.2-7,1.2-10.8v-1.5C256,264.5,255.6,261,254.8,257.5z"/>
</g>
<g>
	<path d="M413,257.5c0-0.1-0.1-0.2-0.1-0.4c0-0.1-0.1-0.2-0.1-0.4c-4.5-18.4-19.7-32-37.8-32h-27.4v28.9H375c3.1,0,6,1.2,8.3,3.2
		c0.1,0.1,0.3,0.2,0.4,0.4c0.1,0.1,0.2,0.2,0.4,0.4c0.1,0.1,0.2,0.2,0.2,0.3s0.2,0.2,0.2,0.3s0.2,0.2,0.2,0.3
		c2.2,2.6,3.5,6.1,3.5,10v1.5c0,3.8-1.3,7.3-3.5,10c-0.1,0.1-0.2,0.2-0.2,0.3c-0.1,0.1-0.2,0.2-0.2,0.3c-0.1,0.1-0.2,0.2-0.2,0.3
		c-0.1,0.1-0.2,0.2-0.4,0.4c-0.1,0.1-0.3,0.2-0.4,0.4c-2.3,2-5.1,3.2-8.3,3.2h-27.4v28.8H375c18,0,33.2-13.5,37.8-32
		c0-0.1,0.1-0.2,0.1-0.4c0-0.2,0.1-0.2,0.1-0.4c0.8-3.4,1.2-7,1.2-10.8v-1.5C414.2,264.5,413.8,261,413,257.5z"/>
</g>
<g>
	<path d="M282.7,280.8c0,0.1,0.1,0.2,0.1,0.4c0,0.1,0.1,0.2,0.1,0.4c4.5,18.4,19.7,32,37.8,32h27.4v-28.8h-27.4
		c-3.1,0-6-1.2-8.3-3.2c-0.1-0.1-0.3-0.2-0.4-0.4c-0.1-0.1-0.2-0.2-0.4-0.4c-0.1-0.1-0.2-0.2-0.2-0.3s-0.2-0.2-0.2-0.3
		s-0.2-0.2-0.2-0.3c-2.2-2.6-3.5-6.1-3.5-10v-1.5c0-3.8,1.3-7.3,3.5-10c0.1-0.1,0.2-0.2,0.2-0.3c0.1-0.1,0.2-0.2,0.2-0.3
		c0.1-0.1,0.2-0.2,0.2-0.3c0.1-0.1,0.2-0.2,0.4-0.4c0.1-0.1,0.3-0.2,0.4-0.4c2.3-2,5.1-3.2,8.3-3.2h27.4v-28.8h-27.4
		c-18,0-33.2,13.6-37.8,32c0,0.1-0.1,0.2-0.1,0.4c0,0.2-0.1,0.2-0.1,0.4c-0.8,3.4-1.2,7-1.2,10.8v1.5
		C281.5,273.8,281.9,277.3,282.7,280.8z"/>
</g>
<g>
	<path d="M124.5,280.8c0,0.1,0.1,0.2,0.1,0.4c0,0.1,0.1,0.2,0.1,0.4c4.5,18.4,19.7,32,37.8,32h27.4v-28.8h-27.4
		c-3.1,0-6-1.2-8.3-3.2c-0.1-0.1-0.3-0.2-0.4-0.4c-0.1-0.1-0.2-0.2-0.4-0.4c-0.1-0.1-0.2-0.2-0.2-0.3s-0.2-0.2-0.2-0.3
		s-0.2-0.2-0.2-0.3c-2.2-2.6-3.5-6.1-3.5-10v-1.5c0-3.8,1.3-7.3,3.5-10c0.1-0.1,0.2-0.2,0.2-0.3c0.1-0.1,0.2-0.2,0.2-0.3
		c0.1-0.1,0.2-0.2,0.2-0.3c0.1-0.1,0.2-0.2,0.4-0.4c0.1-0.1,0.3-0.2,0.4-0.4c2.3-2,5.1-3.2,8.3-3.2h27.4v-28.8h-27.4
		c-18,0-33.2,13.6-37.8,32c0,0.1-0.1,0.2-0.1,0.4c0,0.2-0.1,0.2-0.1,0.4c-0.8,3.4-1.2,7-1.2,10.8v1.5
		C123.3,273.8,123.8,277.3,124.5,280.8z"/>
</g>
<g>
	<g>
		<path d="M319.8,281.1H219.4c-5.9,0-10.7-5.3-10.7-11.9l0,0c0-6.5,4.8-11.9,10.7-11.9h100.5c5.9,0,10.7,5.3,10.7,11.9l0,0
			C330.6,275.8,325.8,281.1,319.8,281.1z"/>
		<path d="M319.8,281.5H219.4c-6.1,0-11-5.5-11-12.2l0,0c0-6.8,4.9-12.2,11-12.2h100.5c6.1,0,11,5.5,11,12.2l0,0
			C330.9,276,325.9,281.5,319.8,281.5z M219.4,257.8c-5.7,0-10.4,5.1-10.4,11.5l0,0c0,6.4,4.6,11.5,10.4,11.5h100.5
			c5.7,0,10.4-5.1,10.4-11.5l0,0c0-6.4-4.6-11.5-10.4-11.5H219.4z"/>
	</g>
</g>
<text transform="matrix(1.1887 0 0 1 500.7088 400.6683)" class="st0 st1">A  P  P  E  N  D</text>
</svg>
